<mxfile host="app.diagrams.net" modified="2022-10-11T15:26:01.651Z" agent="5.0 (Windows NT 10.0; Win64; x64) AppleWebKit/537.36 (KHTML, like Gecko) Chrome/106.0.0.0 Safari/537.36" etag="I_Ry-Ih6dxOK93-ej8iy" version="20.4.0" type="github">
  <diagram id="0rBzUbckFemJIuANetFq" name="Seite-1">
    <mxGraphModel dx="2858" dy="2176" grid="1" gridSize="10" guides="1" tooltips="1" connect="1" arrows="1" fold="1" page="1" pageScale="1" pageWidth="827" pageHeight="1169" math="0" shadow="0">
      <root>
        <mxCell id="0" />
        <mxCell id="1" parent="0" />
        <mxCell id="jQemTqp7grLnhRWUzKIH-1" value="" style="ellipse;shape=cloud;whiteSpace=wrap;html=1;" parent="1" vertex="1">
          <mxGeometry x="-30" y="-80" width="1390" height="760" as="geometry" />
        </mxCell>
        <mxCell id="jQemTqp7grLnhRWUzKIH-2" value="" style="rounded=0;whiteSpace=wrap;html=1;" parent="1" vertex="1">
          <mxGeometry x="550" y="475" width="390" height="120" as="geometry" />
        </mxCell>
        <mxCell id="jQemTqp7grLnhRWUzKIH-3" value="Rechenkluster Ai StableDiffusion" style="text;html=1;strokeColor=none;fillColor=none;align=center;verticalAlign=middle;whiteSpace=wrap;rounded=0;" parent="1" vertex="1">
          <mxGeometry x="690" y="510" width="90" height="50" as="geometry" />
        </mxCell>
        <mxCell id="jQemTqp7grLnhRWUzKIH-4" value="S3 bucket" style="shape=cylinder3;whiteSpace=wrap;html=1;boundedLbl=1;backgroundOutline=1;size=15;" parent="1" vertex="1">
          <mxGeometry x="1100" y="240" width="60" height="80" as="geometry" />
        </mxCell>
        <mxCell id="jQemTqp7grLnhRWUzKIH-5" value="DB" style="shape=cylinder3;whiteSpace=wrap;html=1;boundedLbl=1;backgroundOutline=1;size=15;" parent="1" vertex="1">
          <mxGeometry x="1110" y="370" width="60" height="80" as="geometry" />
        </mxCell>
        <mxCell id="jQemTqp7grLnhRWUzKIH-6" value="Microservice ec2" style="rounded=0;whiteSpace=wrap;html=1;" parent="1" vertex="1">
          <mxGeometry x="570" y="250" width="120" height="60" as="geometry" />
        </mxCell>
        <mxCell id="jQemTqp7grLnhRWUzKIH-7" value="Microservice ec2" style="rounded=0;whiteSpace=wrap;html=1;" parent="1" vertex="1">
          <mxGeometry x="760" y="290" width="120" height="60" as="geometry" />
        </mxCell>
        <mxCell id="jQemTqp7grLnhRWUzKIH-8" value="Microservice ec2" style="rounded=0;whiteSpace=wrap;html=1;" parent="1" vertex="1">
          <mxGeometry x="740" y="210" width="120" height="60" as="geometry" />
        </mxCell>
        <mxCell id="jQemTqp7grLnhRWUzKIH-9" value="Microservice ec2" style="rounded=0;whiteSpace=wrap;html=1;" parent="1" vertex="1">
          <mxGeometry x="610" y="380" width="120" height="60" as="geometry" />
        </mxCell>
        <mxCell id="jQemTqp7grLnhRWUzKIH-11" value="DiscordBot" style="rounded=0;whiteSpace=wrap;html=1;" parent="1" vertex="1">
          <mxGeometry x="180" y="250" width="120" height="60" as="geometry" />
        </mxCell>
        <mxCell id="jQemTqp7grLnhRWUzKIH-12" value="Website" style="rounded=0;whiteSpace=wrap;html=1;" parent="1" vertex="1">
          <mxGeometry x="180" y="150" width="120" height="60" as="geometry" />
        </mxCell>
        <mxCell id="jQemTqp7grLnhRWUzKIH-13" value="Api&amp;nbsp;" style="rounded=0;whiteSpace=wrap;html=1;" parent="1" vertex="1">
          <mxGeometry x="354" y="340" width="120" height="60" as="geometry" />
        </mxCell>
        <mxCell id="jQemTqp7grLnhRWUzKIH-15" value="" style="shape=actor;whiteSpace=wrap;html=1;" parent="1" vertex="1">
          <mxGeometry x="-70" y="170" width="80" height="140" as="geometry" />
        </mxCell>
        <mxCell id="jQemTqp7grLnhRWUzKIH-16" value="" style="endArrow=classic;startArrow=classic;html=1;rounded=0;exitX=0.954;exitY=0.647;exitDx=0;exitDy=0;exitPerimeter=0;entryX=0;entryY=0.75;entryDx=0;entryDy=0;" parent="1" source="jQemTqp7grLnhRWUzKIH-15" target="jQemTqp7grLnhRWUzKIH-12" edge="1">
          <mxGeometry width="50" height="50" relative="1" as="geometry">
            <mxPoint x="-20" y="330" as="sourcePoint" />
            <mxPoint x="30" y="280" as="targetPoint" />
          </mxGeometry>
        </mxCell>
        <mxCell id="jQemTqp7grLnhRWUzKIH-17" value="" style="endArrow=classic;startArrow=classic;html=1;rounded=0;entryX=0;entryY=0.5;entryDx=0;entryDy=0;exitX=0.971;exitY=0.841;exitDx=0;exitDy=0;exitPerimeter=0;" parent="1" source="jQemTqp7grLnhRWUzKIH-15" target="jQemTqp7grLnhRWUzKIH-11" edge="1">
          <mxGeometry width="50" height="50" relative="1" as="geometry">
            <mxPoint x="-40" y="370" as="sourcePoint" />
            <mxPoint x="10" y="320" as="targetPoint" />
          </mxGeometry>
        </mxCell>
        <mxCell id="jQemTqp7grLnhRWUzKIH-18" value="" style="shape=image;html=1;verticalAlign=top;verticalLabelPosition=bottom;labelBackgroundColor=#ffffff;imageAspect=0;aspect=fixed;image=https://cdn4.iconfinder.com/data/icons/social-media-and-logos-12/32/Logo_reddit_robot-128.png" parent="1" vertex="1">
          <mxGeometry x="-60" y="400" width="128" height="128" as="geometry" />
        </mxCell>
        <mxCell id="jQemTqp7grLnhRWUzKIH-19" value="" style="endArrow=classic;startArrow=classic;html=1;rounded=0;entryX=0;entryY=0.75;entryDx=0;entryDy=0;" parent="1" source="jQemTqp7grLnhRWUzKIH-18" target="jQemTqp7grLnhRWUzKIH-13" edge="1">
          <mxGeometry width="50" height="50" relative="1" as="geometry">
            <mxPoint x="40" y="550" as="sourcePoint" />
            <mxPoint x="90" y="500" as="targetPoint" />
          </mxGeometry>
        </mxCell>
        <mxCell id="jQemTqp7grLnhRWUzKIH-23" value="OpenAiStableDiffusion" style="ellipse;whiteSpace=wrap;html=1;" parent="1" vertex="1">
          <mxGeometry x="620" y="-240" width="120" height="80" as="geometry" />
        </mxCell>
        <mxCell id="jQemTqp7grLnhRWUzKIH-24" value="" style="endArrow=none;dashed=1;html=1;dashPattern=1 3;strokeWidth=2;rounded=0;exitX=0.5;exitY=1;exitDx=0;exitDy=0;entryX=0.503;entryY=0.112;entryDx=0;entryDy=0;entryPerimeter=0;" parent="1" source="jQemTqp7grLnhRWUzKIH-23" target="jQemTqp7grLnhRWUzKIH-1" edge="1">
          <mxGeometry width="50" height="50" relative="1" as="geometry">
            <mxPoint x="690" as="sourcePoint" />
            <mxPoint x="740" y="-50" as="targetPoint" />
          </mxGeometry>
        </mxCell>
        <mxCell id="jQemTqp7grLnhRWUzKIH-29" value="Microservice ec2" style="rounded=0;whiteSpace=wrap;html=1;" parent="1" vertex="1">
          <mxGeometry x="590" y="150" width="120" height="60" as="geometry" />
        </mxCell>
      </root>
    </mxGraphModel>
  </diagram>
</mxfile>
